<svg width="50" height="50" viewBox="0 0 50 50" fill="none" xmlns="http://www.w3.org/2000/svg">
<g clip-path="url(#clip0_1017_2)">
<path d="M27.2772 2.28073V22.707H47.7203C48.9619 22.707 49.9995 23.7338 50 25.0085C50.0006 26.2807 48.9661 27.3076 47.7203 27.3076H27.2772V47.7216C27.2772 48.9833 26.2572 50.0011 25.0024 50.0011C24.3747 50.0011 23.8129 49.7511 23.3946 49.3329L23.392 49.3302C22.9917 48.9311 22.7386 48.3704 22.7386 47.7216V27.3088H2.2735C1.66378 27.3088 1.09498 27.0581 0.665816 26.6284L0.664504 26.6271C0.258829 26.2215 0.000537189 25.6439 0.00110097 25.0036L0.00109885 24.9999C0.000549376 23.7444 1.02322 22.7192 2.28696 22.7192H22.7386V2.28195C22.7386 1.01208 23.7569 0 25.0073 0C26.259 0 27.2772 1.0134 27.2772 2.28073Z" fill="#333333"/>
</g>
<defs>
<clipPath id="clip0_1017_2">
<rect width="50" height="50" fill="white"/>
</clipPath>
</defs>
</svg>
