<svg width="50" height="50" viewBox="0 0 50 50" fill="none" xmlns="http://www.w3.org/2000/svg">
<g clip-path="url(#clip0_1036_154)">
<path d="M42.6758 10.5451L28.2322 24.9887L42.6876 39.4441C43.5656 40.322 43.5732 41.7818 42.6722 42.6835C41.773 43.5835 40.3155 43.5781 39.4345 42.6972L24.9791 28.2418L10.5442 42.6767C9.65206 43.5688 8.21112 43.5673 7.32381 42.68C6.87998 42.2361 6.65948 41.6621 6.65946 41.0706L6.65945 41.0669C6.65866 40.5015 6.8761 39.9261 7.33489 39.4673L21.7689 25.0333L7.29793 10.5623C6.86679 10.1312 6.64185 9.55174 6.64222 8.94444L6.64222 8.94258C6.64219 8.3689 6.86799 7.77782 7.32113 7.32548L7.32371 7.3229C8.21112 6.43471 9.65919 6.43292 10.5528 7.32652L25.0143 21.788L39.4656 7.33666C40.3635 6.43873 41.7992 6.44317 42.6834 7.32731C43.5685 8.21239 43.5719 9.64899 42.6758 10.5451Z" fill="#333333"/>
</g>
<defs>
<clipPath id="clip0_1036_154">
<rect width="50" height="50" fill="white"/>
</clipPath>
</defs>
</svg>
