<svg width="50" height="50" viewBox="0 0 50 50" fill="none" xmlns="http://www.w3.org/2000/svg">
<path d="M0 25.005C0 25.9567 0.771389 26.7281 1.7231 26.7281H34.5422L28.1407 33.1196C27.4694 33.7908 27.4694 34.8828 28.1407 35.554C28.4712 35.8846 28.912 36.0549 29.3528 36.0549C29.7936 36.0549 30.2344 35.8846 30.565 35.554L39.8918 26.2272C40.563 25.556 40.563 24.4641 39.8918 23.7928L30.565 14.4661C29.8938 13.7948 28.8018 13.7948 28.1306 14.4661C27.4594 15.1373 27.4594 16.2292 28.1306 16.9004L34.5221 23.2919H1.7231C0.771389 23.2919 0 24.0533 0 25.005Z" fill="#333333"/>
<path d="M39.7115 49.5092C45.3917 49.5092 50 44.8909 50 39.2107V10.7895C50 5.10928 45.3817 0.490967 39.7115 0.490967H11.2903C5.61009 0.490967 1.0018 5.10928 1.0018 10.7895V16.63C1.0018 17.5817 1.77319 18.3431 2.71488 18.3431C3.6666 18.3431 4.43799 17.5717 4.43799 16.63V10.7895C4.43799 7.01271 7.51352 3.92715 11.2903 3.92715H39.7115C43.4883 3.92715 46.5638 7.00269 46.5638 10.7895V39.2107C46.5638 42.9875 43.4883 46.073 39.7115 46.073H11.2903C7.51352 46.073 4.43799 42.9975 4.43799 39.2107V33.4403C4.43799 32.4886 3.6666 31.7172 2.71488 31.7172C1.76317 31.7172 1.0018 32.4886 1.0018 33.4403V39.2107C1.0018 44.8909 5.62011 49.5092 11.2903 49.5092H39.7115V49.5092Z" fill="#333333"/>
</svg>
