<svg width="50" height="50" viewBox="0 0 50 50" fill="none" xmlns="http://www.w3.org/2000/svg">
<path d="M9.5 25.005C9.5 25.9567 10.2714 26.7281 11.2231 26.7281H44.0422L37.6407 33.1196C36.9694 33.7908 36.9694 34.8828 37.6407 35.554C37.9712 35.8846 38.412 36.0549 38.8528 36.0549C39.2936 36.0549 39.7344 35.8846 40.065 35.554L49.3918 26.2272C50.063 25.556 50.063 24.4641 49.3918 23.7928L40.065 14.4661C39.3938 13.7948 38.3018 13.7948 37.6306 14.4661C36.9594 15.1373 36.9594 16.2292 37.6306 16.9004L44.0221 23.2919H11.2231C10.2714 23.2919 9.5 24.0533 9.5 25.005Z" fill="#333333"/>
<path d="M11.2903 49.5092C5.6101 49.5092 1.0018 44.8909 1.0018 39.2107V10.7895C1.0018 5.10928 5.62012 0.490967 11.2903 0.490967H25.5009C26.4426 0.490967 27.214 1.25234 27.214 2.20405C27.214 3.15577 26.4426 3.92715 25.5009 3.92715H11.2903C7.51353 3.92715 4.43799 7.00269 4.43799 10.7895V39.2107C4.43799 42.9875 7.51353 46.073 11.2903 46.073H25.5009C26.4426 46.073 27.214 46.8344 27.214 47.7861C27.214 48.7378 26.4417 49.5 25.5 49.5L11.2903 49.5092Z" fill="#333333"/>
</svg>
