<svg width="68" height="27" viewBox="0 0 68 27" fill="none" xmlns="http://www.w3.org/2000/svg">
<g clip-path="url(#clip0_1007_30)">
<path d="M12 15.6037C13.1814 15.6037 14.1391 14.6619 14.1391 13.5C14.1391 12.3381 13.1814 11.3962 12 11.3962C10.8186 11.3962 9.86087 12.3381 9.86087 13.5C9.86087 14.6619 10.8186 15.6037 12 15.6037Z" fill="#61DAFB"/>
<path d="M12 17.8102C18.3393 17.8102 23.4783 15.8805 23.4783 13.5001C23.4783 11.1196 18.3393 9.18994 12 9.18994C5.66072 9.18994 0.521729 11.1196 0.521729 13.5001C0.521729 15.8805 5.66072 17.8102 12 17.8102Z" stroke="#61DAFB"/>
<path d="M8.20453 15.655C11.3742 21.0542 15.6429 24.4662 17.7391 23.276C19.8353 22.0858 18.9651 16.7441 15.7954 11.3449C12.6258 5.94573 8.35702 2.5337 6.26085 3.72391C4.16469 4.91411 5.0349 10.2558 8.20453 15.655Z" stroke="#61DAFB"/>
<path d="M8.20455 11.3448C5.03491 16.744 4.1647 22.0857 6.26086 23.2759C8.35703 24.4661 12.6258 21.0541 15.7954 15.6549C18.9651 10.2558 19.8353 4.91405 17.7391 3.72385C15.643 2.53364 11.3742 5.94567 8.20455 11.3448Z" stroke="#61DAFB"/>
</g>
<path d="M26.7585 12V3.27273H30.2017C30.8608 3.27273 31.4233 3.39062 31.8892 3.62642C32.358 3.85937 32.7145 4.19034 32.9588 4.61932C33.206 5.04545 33.3295 5.54687 33.3295 6.12358C33.3295 6.70312 33.2045 7.2017 32.9545 7.61932C32.7045 8.03409 32.3423 8.35227 31.8679 8.57386C31.3963 8.79545 30.8253 8.90625 30.1548 8.90625H27.8494V7.4233H29.8565C30.2088 7.4233 30.5014 7.375 30.7344 7.27841C30.9673 7.18182 31.1406 7.03693 31.2543 6.84375C31.3707 6.65057 31.429 6.41051 31.429 6.12358C31.429 5.83381 31.3707 5.58949 31.2543 5.39062C31.1406 5.19176 30.9659 5.04119 30.7301 4.93892C30.4972 4.83381 30.2031 4.78125 29.848 4.78125H28.6037V12H26.7585ZM31.4716 8.02841L33.6406 12H31.6037L29.4815 8.02841H31.4716ZM34.6335 12V3.27273H40.5142V4.79403H36.4787V6.87358H40.2116V8.39489H36.4787V10.4787H40.5312V12H34.6335ZM43.4854 12H41.5082L44.521 3.27273H46.8988L49.9073 12H47.93L45.744 5.26705H45.6758L43.4854 12ZM43.3619 8.5696H48.0323V10.0099H43.3619V8.5696ZM58.2479 6.32812H56.3814C56.3473 6.08665 56.2777 5.87216 56.1726 5.68466C56.0675 5.49432 55.9325 5.33239 55.7678 5.19886C55.603 5.06534 55.4126 4.96307 55.1967 4.89205C54.9837 4.82102 54.7521 4.78551 54.5021 4.78551C54.0504 4.78551 53.657 4.89773 53.3217 5.12216C52.9865 5.34375 52.7266 5.66761 52.5419 6.09375C52.3572 6.51705 52.2649 7.03125 52.2649 7.63636C52.2649 8.25852 52.3572 8.78125 52.5419 9.20455C52.7294 9.62784 52.9908 9.94744 53.326 10.1634C53.6612 10.3793 54.049 10.4872 54.4893 10.4872C54.7365 10.4872 54.9652 10.4545 55.1754 10.3892C55.3885 10.3239 55.5774 10.2287 55.7422 10.1037C55.907 9.97585 56.0433 9.82102 56.1513 9.6392C56.2621 9.45739 56.3388 9.25 56.3814 9.01705L58.2479 9.02557C58.1996 9.42614 58.0788 9.8125 57.8857 10.1847C57.6953 10.554 57.4382 10.8849 57.1143 11.1776C56.7933 11.4673 56.4098 11.6974 55.9638 11.8679C55.5206 12.0355 55.0192 12.1193 54.4595 12.1193C53.6811 12.1193 52.9851 11.9432 52.3714 11.5909C51.7607 11.2386 51.2777 10.7287 50.9226 10.0611C50.5703 9.39347 50.3942 8.58523 50.3942 7.63636C50.3942 6.68466 50.5732 5.875 50.9311 5.20739C51.2891 4.53977 51.7749 4.03125 52.3885 3.68182C53.0021 3.32955 53.6925 3.15341 54.4595 3.15341C54.9652 3.15341 55.4339 3.22443 55.8658 3.36648C56.3004 3.50852 56.6854 3.71591 57.0206 3.98864C57.3558 4.25852 57.6286 4.58949 57.8388 4.98153C58.0518 5.37358 58.1882 5.82244 58.2479 6.32812ZM59.2386 4.79403V3.27273H66.4062V4.79403H63.7344V12H61.9105V4.79403H59.2386Z" fill="#333333"/>
<path d="M26.7585 24V15.2727H30.2528C30.8949 15.2727 31.4304 15.3679 31.8594 15.5582C32.2884 15.7486 32.6108 16.0128 32.8267 16.3509C33.0426 16.6861 33.1506 17.0724 33.1506 17.5099C33.1506 17.8509 33.0824 18.1506 32.946 18.4091C32.8097 18.6648 32.6222 18.875 32.3835 19.0398C32.1477 19.2017 31.8778 19.3168 31.5739 19.3849V19.4702C31.9063 19.4844 32.2173 19.5781 32.5071 19.7514C32.7997 19.9247 33.0369 20.1676 33.2188 20.4801C33.4006 20.7898 33.4915 21.1591 33.4915 21.5881C33.4915 22.0511 33.3764 22.4645 33.1463 22.8281C32.919 23.1889 32.5824 23.4744 32.1364 23.6847C31.6903 23.8949 31.1406 24 30.4872 24H26.7585ZM28.6037 22.4915H30.108C30.6222 22.4915 30.9972 22.3935 31.233 22.1974C31.4688 21.9986 31.5866 21.7344 31.5866 21.4048C31.5866 21.1634 31.5284 20.9503 31.4119 20.7656C31.2955 20.581 31.1293 20.4361 30.9134 20.331C30.7003 20.2259 30.446 20.1733 30.1506 20.1733H28.6037V22.4915ZM28.6037 18.9247H29.9716C30.2244 18.9247 30.4489 18.8807 30.6449 18.7926C30.8438 18.7017 31 18.5739 31.1136 18.4091C31.2301 18.2443 31.2884 18.0469 31.2884 17.8168C31.2884 17.5014 31.1761 17.2472 30.9517 17.054C30.7301 16.8608 30.4148 16.7642 30.0057 16.7642H28.6037V18.9247ZM37.5121 24V15.2727H39.3573V22.4787H43.0988V24H37.5121ZM54.8208 19.6364C54.8208 20.5881 54.6404 21.3977 54.2796 22.0653C53.9216 22.733 53.433 23.2429 52.8136 23.5952C52.1972 23.9446 51.504 24.1193 50.7341 24.1193C49.9585 24.1193 49.2625 23.9432 48.646 23.5909C48.0296 23.2386 47.5423 22.7287 47.1844 22.0611C46.8264 21.3935 46.6475 20.5852 46.6475 19.6364C46.6475 18.6847 46.8264 17.875 47.1844 17.2074C47.5423 16.5398 48.0296 16.0312 48.646 15.6818C49.2625 15.3295 49.9585 15.1534 50.7341 15.1534C51.504 15.1534 52.1972 15.3295 52.8136 15.6818C53.433 16.0312 53.9216 16.5398 54.2796 17.2074C54.6404 17.875 54.8208 18.6847 54.8208 19.6364ZM52.95 19.6364C52.95 19.0199 52.8577 18.5 52.673 18.0767C52.4912 17.6534 52.2341 17.3324 51.9017 17.1136C51.5693 16.8949 51.1801 16.7855 50.7341 16.7855C50.2881 16.7855 49.8989 16.8949 49.5665 17.1136C49.2341 17.3324 48.9756 17.6534 48.7909 18.0767C48.6091 18.5 48.5182 19.0199 48.5182 19.6364C48.5182 20.2528 48.6091 20.7727 48.7909 21.196C48.9756 21.6193 49.2341 21.9403 49.5665 22.1591C49.8989 22.3778 50.2881 22.4872 50.7341 22.4872C51.1801 22.4872 51.5693 22.3778 51.9017 22.1591C52.2341 21.9403 52.4912 21.6193 52.673 21.196C52.8577 20.7727 52.95 20.2528 52.95 19.6364ZM64.7945 18.0938C64.7349 17.8864 64.6511 17.7031 64.5431 17.544C64.4351 17.3821 64.303 17.2457 64.1468 17.1349C63.9934 17.0213 63.8172 16.9347 63.6184 16.875C63.4224 16.8153 63.205 16.7855 62.9664 16.7855C62.5204 16.7855 62.1283 16.8963 61.7903 17.1179C61.455 17.3395 61.1937 17.6619 61.0062 18.0852C60.8187 18.5057 60.7249 19.0199 60.7249 19.6278C60.7249 20.2358 60.8172 20.7528 61.0019 21.179C61.1866 21.6051 61.4479 21.9304 61.786 22.1548C62.1241 22.3764 62.5232 22.4872 62.9834 22.4872C63.4011 22.4872 63.7576 22.4134 64.053 22.2656C64.3513 22.1151 64.5786 21.9034 64.7349 21.6307C64.8939 21.358 64.9735 21.0355 64.9735 20.6634L65.3485 20.7188H63.0985V19.3295H66.7505V20.429C66.7505 21.196 66.5886 21.8551 66.2647 22.4062C65.9408 22.9545 65.4948 23.3778 64.9266 23.6761C64.3584 23.9716 63.7079 24.1193 62.9749 24.1193C62.1567 24.1193 61.438 23.9389 60.8187 23.5781C60.1993 23.2145 59.7164 22.6989 59.3698 22.0312C59.0261 21.3608 58.8542 20.5653 58.8542 19.6449C58.8542 18.9375 58.9564 18.3068 59.161 17.7528C59.3684 17.196 59.6582 16.7244 60.0303 16.3381C60.4025 15.9517 60.8357 15.6577 61.33 15.456C61.8243 15.2543 62.3599 15.1534 62.9366 15.1534C63.4309 15.1534 63.8911 15.2259 64.3172 15.3707C64.7434 15.5128 65.1212 15.7145 65.4508 15.9759C65.7832 16.2372 66.0545 16.5483 66.2647 16.9091C66.4749 17.267 66.6099 17.6619 66.6695 18.0938H64.7945Z" fill="#333333"/>
<defs>
<clipPath id="clip0_1007_30">
<rect width="24" height="21" fill="white" transform="translate(0 3)"/>
</clipPath>
</defs>
</svg>
