<svg width="50" height="50" viewBox="0 0 50 50" fill="none" xmlns="http://www.w3.org/2000/svg">
<g clip-path="url(#clip0_1017_80)">
<path fill-rule="evenodd" clip-rule="evenodd" d="M47.2222 5H2.77778C1.24375 5 0 3.88062 0 2.5C0 1.11938 1.24375 0 2.77778 0H47.2222C48.7562 0 50 1.11938 50 2.5C50 3.88062 48.7562 5 47.2222 5Z" fill="#333333"/>
<path fill-rule="evenodd" clip-rule="evenodd" d="M2.77778 22.2222H47.2222C48.7562 22.2222 50 23.3415 50 24.7222C50 26.1028 48.7562 27.2222 47.2222 27.2222H2.77778C1.24375 27.2222 0 26.1028 0 24.7222C0 23.3415 1.24375 22.2222 2.77778 22.2222Z" fill="#333333"/>
<path fill-rule="evenodd" clip-rule="evenodd" d="M2.77778 44.4443H47.2222C48.7562 44.4443 50 45.5637 50 46.9443C50 48.325 48.7562 49.4443 47.2222 49.4443H2.77778C1.24375 49.4443 0 48.325 0 46.9443C0 45.5637 1.24375 44.4443 2.77778 44.4443Z" fill="#333333"/>
</g>
<defs>
<clipPath id="clip0_1017_80">
<rect width="50" height="50" fill="white"/>
</clipPath>
</defs>
</svg>
