<svg width="57" height="50" viewBox="0 0 57 50" fill="none" xmlns="http://www.w3.org/2000/svg">
<path fill-rule="evenodd" clip-rule="evenodd" d="M10.5 16.5C10.5 9.87258 15.8726 4.5 22.5 4.5C29.1274 4.5 34.5 9.87258 34.5 16.5C34.5 23.1274 29.1274 28.5 22.5 28.5C15.8726 28.5 10.5 23.1274 10.5 16.5ZM22.5 7.91176C17.7569 7.91176 13.9118 11.7569 13.9118 16.5C13.9118 21.2431 17.7569 25.0882 22.5 25.0882C27.2432 25.0882 31.0882 21.2431 31.0882 16.5C31.0882 11.7569 27.2432 7.91176 22.5 7.91176Z" fill="#333333"/>
<path fill-rule="evenodd" clip-rule="evenodd" d="M29.1868 31.5336L31.6994 30.7235C32.1591 30.5756 32.6397 30.5 33.1232 30.5H34.1129C39.8558 30.5 44.5 35.0935 44.5 40.7464V44.1518C44.5 46.0601 43.098 47.6953 41.1773 48.0049C28.8077 49.9984 16.1923 49.9984 3.8226 48.0049C1.90197 47.6953 0.5 46.0601 0.5 44.1518V40.7464C0.5 35.0935 5.1443 30.5 10.8871 30.5H11.8767C12.3602 30.5 12.8409 30.5756 13.3005 30.7235L15.8132 31.5336C20.1583 32.9339 24.8417 32.9338 29.1868 31.5336ZM32.7461 33.8574C32.8672 33.8189 32.9944 33.7986 33.1232 33.7986H34.1129C39.8032 34.0374 41.172 38.53 41.1452 40.7464V44.1518C41.1452 44.454 40.8446 44.7031 40.5552 44.7497C24 47.5 9.73026 45.58 9.73026 45.58C9.73026 45.58 6.35617 44.9419 4.36519 44.7497C4.07583 44.7031 3.85484 44.4539 3.85484 44.1518V40.7464C4.13871 34.9921 8.66129 33.7169 10.8871 33.7986H11.8767C12.0056 33.7986 12.1329 33.8188 12.254 33.8575L12.2554 33.8579L14.7682 34.6681C19.7921 36.2871 25.2079 36.2872 30.2317 34.6681L32.7461 33.8574Z" fill="#333333"/>
<path d="M49.1923 10.4231V16.5769H54.8077C55.6964 16.5769 56.5 17.3897 56.5 18.5C56.5 19.6103 55.6964 20.4231 54.8077 20.4231H49.1923V26.5769C49.1923 27.6872 48.3887 28.5 47.5 28.5C46.6113 28.5 45.8077 27.6872 45.8077 26.5769V20.4231H40.1923C39.3036 20.4231 38.5 19.6103 38.5 18.5C38.5 17.3897 39.3036 16.5769 40.1923 16.5769H45.8077V10.4231C45.8077 9.31275 46.6113 8.5 47.5 8.5C48.3887 8.5 49.1923 9.31275 49.1923 10.4231Z" fill="#333333"/>
</svg>
