<svg width="50" height="50" viewBox="0 0 50 50" fill="none" xmlns="http://www.w3.org/2000/svg">
<path fill-rule="evenodd" clip-rule="evenodd" d="M11 13C11 5.8203 17.0442 0 24.5 0C31.9558 0 38 5.8203 38 13C38 20.1797 31.9558 26 24.5 26C17.0442 26 11 20.1797 11 13ZM24.5 3.69608C19.164 3.69608 14.8382 7.8616 14.8382 13C14.8382 18.1384 19.164 22.3039 24.5 22.3039C29.8361 22.3039 34.1618 18.1384 34.1618 13C34.1618 7.8616 29.8361 3.69608 24.5 3.69608Z" fill="#333333"/>
<path fill-rule="evenodd" clip-rule="evenodd" d="M31.9467 30.1424L34.7448 29.2471C35.2567 29.0836 35.7919 29 36.3304 29H37.4326C43.828 29 49 34.077 49 40.325V44.0888C49 46.198 47.4387 48.0053 45.2997 48.3475C31.5245 50.5508 17.4755 50.5508 3.70016 48.3475C1.56129 48.0053 0 46.198 0 44.0888V40.325C0 34.077 5.17207 29 11.5674 29H12.6695C13.208 29 13.7433 29.0836 14.2551 29.2471L17.0533 30.1424C21.8922 31.6901 27.1079 31.69 31.9467 30.1424ZM35.9105 32.7108C36.0452 32.6682 36.1869 32.6458 36.3304 32.6458H37.4326C43.7695 32.9098 45.2939 37.8753 45.2639 40.325V44.0888C45.2639 44.4228 44.9292 44.6982 44.6069 44.7497C26.1705 47.7895 10.2792 45.6674 10.2792 45.6674C10.2792 45.6674 6.52165 44.9621 4.30442 44.7497C3.98218 44.6982 3.73607 44.4227 3.73607 44.0888V40.325C4.0522 33.965 9.08871 32.5555 11.5674 32.6458H12.6695C12.813 32.6458 12.9548 32.6682 13.0897 32.7109L13.0913 32.7114L15.8895 33.6068C21.4843 35.3963 27.5156 35.3963 33.1103 33.6068L35.9105 32.7108Z" fill="#333333"/>
</svg>
